<svg version="1.1" id="Layer_1" xmlns="http://www.w3.org/2000/svg" xmlns:xlink="http://www.w3.org/1999/xlink" x="0px" y="0px"
	 width="100%" viewBox="0 0 500 500" enable-background="new 0 0 500 500" xml:space="preserve">
<path fill="#FF9667" opacity="1.000000" stroke="none" 
	d="
M1.000000,187.000000 
	C1.000000,126.015106 1.033265,65.530144 0.910180,5.045500 
	C0.903418,1.722296 1.435464,0.897313 4.952755,0.899783 
	C168.911713,1.014967 332.870789,1.018373 496.829742,0.886686 
	C500.655548,0.883613 501.080109,1.942596 501.078278,5.327761 
	C500.988708,169.120148 500.987183,332.912567 501.086609,496.704926 
	C501.088715,500.184998 500.529266,501.109192 496.797028,501.106384 
	C333.004700,500.983124 169.212250,500.982422 5.419923,501.105835 
	C1.491773,501.108795 0.910796,500.024323 0.914505,496.421997 
	C1.020548,393.448090 1.000000,290.474030 1.000000,187.000000 
z"/>
<path fill="#FAF2EA" opacity="1.000000" stroke="none" 
	d="
M314.433502,177.884796 
	C323.377777,175.772125 331.719452,177.804031 340.037567,179.138214 
	C347.761108,180.377014 355.388580,182.238297 363.236298,182.626038 
	C367.138519,182.818832 369.094452,184.611969 368.652405,188.657318 
	C368.562256,189.482285 368.738159,190.349792 368.568756,191.150589 
	C367.016235,198.489426 369.965240,203.328873 376.714508,206.178696 
	C379.837067,207.497162 380.940399,209.861328 380.903687,213.324341 
	C380.484894,252.826416 382.822174,292.269073 384.244843,331.716736 
	C384.734009,345.279846 379.772583,353.803101 369.895264,361.779907 
	C357.251892,371.990509 342.857788,378.050446 327.471252,381.988190 
	C323.554291,382.990662 318.951477,381.643127 314.716248,381.019257 
	C284.551849,376.575958 253.967957,375.903625 223.872360,370.945007 
	C214.352875,369.376495 204.855499,367.435974 195.531281,364.972076 
	C178.689133,360.521545 161.475586,358.815796 144.237122,357.201538 
	C140.784195,356.878204 138.526093,355.447357 137.506851,352.290070 
	C135.654861,346.553223 131.851303,343.377136 125.959312,342.064697 
	C121.348793,341.037720 119.164803,338.246033 118.692039,332.897675 
	C115.821152,300.419189 118.339272,267.955414 118.346603,235.490250 
	C118.349609,222.166351 118.583527,208.835480 117.226662,195.545883 
	C116.618073,189.585266 117.625328,188.479935 123.452637,187.915344 
	C144.037354,185.920868 164.847946,187.534561 185.326859,184.950272 
	C224.455917,180.012466 263.838104,181.301331 303.058380,178.926270 
	C306.714386,178.704865 310.357422,178.268158 314.433502,177.884796 
z"/>
<path fill="#FAF7F0" opacity="1.000000" stroke="none" 
	d="
M188.603394,23.159409 
	C200.641907,29.150759 202.967422,41.305943 194.030731,50.874817 
	C191.460617,53.626759 191.550842,55.106968 194.891800,56.814972 
	C201.635666,60.262627 205.840256,65.594742 205.553436,73.469986 
	C205.244690,81.947899 201.267395,88.407516 193.747513,92.466721 
	C189.429749,94.797447 184.712509,96.066811 179.818939,95.896492 
	C165.844711,95.410141 151.878326,95.047951 137.908142,95.941635 
	C135.877228,96.071556 133.904922,95.831398 132.176529,94.622734 
	C129.341675,92.640320 128.735535,89.011208 131.480438,87.051460 
	C135.870224,83.917320 136.722824,79.483131 136.942184,74.780548 
	C137.454208,63.804089 137.731781,52.816792 138.122208,41.834522 
	C138.291748,37.065903 137.618042,32.845596 132.332062,30.882610 
	C130.126648,30.063610 129.615097,28.009020 130.112259,25.872412 
	C130.827545,22.798313 133.401459,21.532810 136.065140,21.328922 
	C140.700989,20.974079 145.410889,20.873484 150.036987,21.274742 
	C156.703827,21.853014 163.307159,21.814842 169.966080,21.234076 
	C176.127762,20.696676 182.287888,20.996046 188.603394,23.159409 
z"/>
<path fill="#FAF6F0" opacity="1.000000" stroke="none" 
	d="
M293.236298,41.096191 
	C292.693329,36.776604 290.819977,34.012238 287.279236,32.006752 
	C282.699432,29.412760 283.051544,24.908798 287.749176,22.476812 
	C295.627014,18.398445 309.694855,20.134275 316.320831,25.983900 
	C324.560944,33.258556 332.781464,40.556076 341.086060,47.756523 
	C342.777405,49.223003 344.567108,51.590157 347.075897,50.479725 
	C349.602295,49.361496 348.987762,46.504768 349.025574,44.223045 
	C349.112915,38.950825 348.831787,34.113625 343.263489,30.934732 
	C339.644196,28.868498 340.433807,23.772146 344.571564,22.230831 
	C352.446777,19.297314 360.669495,19.384216 368.540253,22.126539 
	C373.274719,23.776110 373.686157,29.412027 369.330780,31.854271 
	C364.758240,34.418266 363.944641,38.337505 363.903137,42.791626 
	C363.791443,54.782654 363.861176,66.775673 363.699768,78.765762 
	C363.648407,82.578629 363.436523,86.451874 362.700317,90.179428 
	C361.343597,97.048615 356.854340,98.520081 351.596100,93.865074 
	C341.121887,84.592476 330.809570,75.137207 320.359955,65.836479 
	C318.083221,63.810047 315.874420,60.162975 312.532410,61.598297 
	C308.973511,63.126766 309.937836,67.364517 309.908051,70.598686 
	C309.854187,76.440903 309.664734,82.221016 316.020782,85.811668 
	C318.866760,87.419395 318.004425,91.513504 314.945129,93.818665 
	C309.877350,97.637192 294.058777,97.648376 288.966797,93.837013 
	C285.648621,91.353355 285.250488,87.325302 288.689728,85.081802 
	C292.753784,82.430717 293.806854,78.755356 293.929474,74.436295 
	C294.241364,63.453022 294.736145,52.464035 293.236298,41.096191 
z"/>
<path fill="#FAF6F0" opacity="1.000000" stroke="none" 
	d="
M217.173691,68.103439 
	C217.979828,58.814629 217.223221,50.013138 216.777679,41.217541 
	C216.554199,36.805645 215.742020,32.537457 210.561218,30.903570 
	C208.782349,30.342562 208.112701,28.692310 208.270126,26.873901 
	C208.440842,24.901798 209.489258,23.471157 211.315506,22.637217 
	C213.525375,21.628098 215.883545,21.891323 218.199921,21.833811 
	C232.501129,21.478731 246.825974,22.578430 261.109772,21.135929 
	C261.937683,21.052320 262.782959,21.056395 263.592163,20.886351 
	C267.330750,20.100733 271.301666,18.592073 273.962555,22.821241 
	C276.968933,27.599606 278.759796,32.808186 276.877258,38.460007 
	C275.385681,42.938000 270.021637,43.904587 267.520721,39.851265 
	C262.464081,31.655807 254.686401,31.965843 246.806686,32.273750 
	C242.684052,32.434849 240.429413,34.717087 240.501938,39.026730 
	C240.549545,41.856041 240.531738,44.687237 240.494995,47.516964 
	C240.458649,50.315968 241.183441,52.471409 244.474426,52.721432 
	C247.742950,52.969746 250.516373,52.430283 251.361679,48.621838 
	C251.469818,48.134686 251.642151,47.660881 251.735535,47.171501 
	C252.260834,44.418152 252.254105,41.146641 256.229065,41.109741 
	C260.130554,41.073524 261.076599,44.246670 261.788361,47.146976 
	C263.568787,54.402065 263.435974,61.676228 261.120209,68.817406 
	C260.269989,71.439285 258.869720,73.944847 255.647903,73.766457 
	C252.580658,73.596611 252.449265,70.807449 252.001953,68.560211 
	C251.223755,64.650673 248.881088,62.667702 244.948944,63.145580 
	C241.118790,63.611069 241.170227,66.798347 241.061096,69.645699 
	C240.519653,83.772057 241.725418,84.881172 255.609802,84.326622 
	C262.531433,84.050171 267.800751,81.502876 270.864532,75.025177 
	C272.264099,72.066124 274.087463,69.040977 277.984802,70.303001 
	C281.851379,71.555077 282.294220,75.130356 281.801849,78.582535 
	C281.405762,81.359962 280.685089,84.143677 279.708527,86.776260 
	C276.290894,95.989311 274.736603,96.757935 265.027405,95.786400 
	C251.579987,94.440796 238.081543,95.487442 224.609100,95.199059 
	C221.114395,95.124260 217.614990,95.231895 214.122192,95.118271 
	C211.874527,95.045158 209.736099,94.472931 209.084167,91.896454 
	C208.446442,89.376015 209.645264,87.786514 211.918930,86.777092 
	C214.819687,85.489281 216.059021,83.013588 216.330582,80.023026 
	C216.676575,76.212898 216.889999,72.390739 217.173691,68.103439 
z"/>
<path fill="#FAF6EF" opacity="1.000000" stroke="none" 
	d="
M144.718414,154.761780 
	C145.420502,157.483475 149.999130,157.638443 148.386917,160.949768 
	C146.843262,164.120316 143.504822,164.048431 140.500092,164.050659 
	C137.528503,164.052872 134.436386,164.623764 131.647812,163.186356 
	C128.853271,161.745865 127.773109,159.686691 130.969711,157.629028 
	C133.050797,156.289429 133.804291,154.610306 134.028366,152.308517 
	C134.803238,144.349274 135.204071,136.380814 135.079437,128.382523 
	C135.025757,124.937744 134.506607,122.006821 131.234375,119.769493 
	C128.210526,117.701981 128.817337,114.986374 132.168518,113.230705 
	C140.338837,108.950302 150.093155,112.136612 154.127991,120.391907 
	C155.516235,123.232231 156.853638,126.102547 158.375519,128.870499 
	C159.311661,130.573120 160.044693,132.979568 162.279297,133.034088 
	C164.655548,133.092072 165.106583,130.518784 165.982880,128.828171 
	C167.896164,125.136963 169.501221,121.282700 171.482040,117.630562 
	C174.535507,112.000771 186.653641,109.546280 191.730927,113.433884 
	C194.048386,115.208344 194.270096,117.411690 192.163391,119.373779 
	C189.581146,121.778748 189.028656,124.773956 189.029556,127.995323 
	C189.031616,135.482651 189.108521,142.969986 189.167542,150.457214 
	C189.186707,152.887054 189.886017,154.971390 191.854507,156.628082 
	C195.054993,159.321640 194.123871,161.883972 190.688232,162.947998 
	C184.230225,164.948090 177.512741,164.780258 171.008224,163.104706 
	C167.781982,162.273636 166.795425,159.854156 169.467941,157.094940 
	C173.389862,153.045807 171.828339,148.048630 171.938416,143.347702 
	C171.956741,142.565063 171.575958,141.493668 170.558060,141.678650 
	C169.867966,141.804092 169.050888,142.487656 168.723068,143.139206 
	C167.005325,146.553268 165.409607,150.029373 163.804550,153.499207 
	C162.966751,155.310364 162.258270,157.183197 161.376175,158.971344 
	C160.725098,160.291122 160.109787,161.879135 158.334976,161.933990 
	C156.524323,161.989975 155.829330,160.408203 155.209656,159.088974 
	C152.804779,153.969299 150.515579,148.795395 148.156250,143.654083 
	C147.620560,142.486740 147.318680,140.599655 145.826096,140.797760 
	C144.021637,141.037262 144.202499,143.030411 144.176132,144.440933 
	C144.114120,147.758713 143.814041,151.096344 144.718414,154.761780 
z"/>
<path fill="#FAF6EF" opacity="1.000000" stroke="none" 
	d="
M334.340912,161.883606 
	C329.043396,159.068390 325.724030,151.870544 326.950287,146.539047 
	C327.647675,143.506973 330.193451,142.672531 332.485413,144.927505 
	C333.889526,146.308929 334.842316,148.138245 336.083191,149.698502 
	C339.377014,153.840240 343.696991,155.508926 348.894592,154.633972 
	C350.577393,154.350693 352.142426,153.479218 352.236969,151.459824 
	C352.318207,149.723770 351.108398,148.723389 349.650787,148.146454 
	C346.713043,146.983627 343.678894,146.053131 340.780670,144.803741 
	C331.797607,140.931244 326.790039,133.247223 328.348663,125.932549 
	C330.050629,117.945396 337.875061,112.356178 347.353485,111.816879 
	C353.044464,111.493073 358.412903,113.524460 364.157776,113.236694 
	C368.546295,113.016853 372.943939,122.174797 371.154449,126.364525 
	C369.790833,129.557175 366.602417,130.124420 363.270020,127.608879 
	C360.889343,125.811783 358.997498,123.343315 356.170624,122.164124 
	C353.286194,120.960922 349.854095,120.003578 348.365784,123.585289 
	C346.817871,127.310478 350.341553,128.234406 353.012268,129.184921 
	C356.299561,130.354889 359.713379,131.226883 362.889374,132.639404 
	C368.598236,135.178406 372.545624,139.321503 372.541656,145.960785 
	C372.537476,152.926147 369.070160,157.992081 362.981842,161.198105 
	C356.166565,164.786942 348.833710,164.508209 341.501526,163.613083 
	C339.206726,163.332947 336.972748,162.554703 334.340912,161.883606 
z"/>
<path fill="#FAF6EF" opacity="1.000000" stroke="none" 
	d="
M205.771774,425.896240 
	C205.258530,419.409637 200.644501,422.363831 197.731812,422.010406 
	C194.522736,421.621002 194.035614,424.039825 194.087708,426.637421 
	C194.145096,429.498901 194.294662,432.201202 196.608887,434.429016 
	C199.096497,436.823822 198.191727,439.234253 195.385239,440.341949 
	C189.309555,442.740021 182.967178,442.808289 176.858521,440.534332 
	C173.791641,439.392670 172.657394,436.910004 175.937531,434.571320 
	C178.311676,432.878571 178.854568,430.618744 178.883774,428.077301 
	C178.956421,421.755676 178.929871,415.432800 178.922562,409.110443 
	C178.919983,406.871521 178.435333,405.002960 176.319733,403.561829 
	C173.148148,401.401367 174.415985,399.134491 177.114609,397.906830 
	C183.098572,395.184601 189.436081,395.172852 195.632095,396.984375 
	C198.926071,397.947418 199.628387,400.318451 196.995209,403.021820 
	C196.419128,403.613251 195.539856,404.021698 195.200241,404.711395 
	C193.827942,407.498322 192.859970,411.018463 195.344421,412.997070 
	C197.916260,415.045288 202.318985,415.089935 204.647171,412.877747 
	C207.208435,410.444122 206.061615,406.672272 203.890610,403.857941 
	C200.747833,399.783905 201.198807,397.760223 206.110916,396.640656 
	C211.172089,395.487122 216.384232,395.366730 221.425354,396.733734 
	C225.690109,397.890198 226.414383,400.556885 223.259659,403.461029 
	C221.418701,405.155701 221.006485,407.035675 220.988953,409.229919 
	C220.935806,415.886017 220.951248,422.542847 220.865692,429.198395 
	C220.835953,431.511200 221.519089,433.232330 223.399338,434.800262 
	C226.202316,437.137543 225.006073,439.530518 222.225296,440.536560 
	C216.292084,442.683105 210.098694,442.736786 204.118820,440.732513 
	C201.333633,439.799011 200.050064,437.294556 202.602219,434.925171 
	C205.254349,432.462921 205.444870,429.446472 205.771774,425.896240 
z"/>
<path fill="#FAF6EF" opacity="1.000000" stroke="none" 
	d="
M278.506287,163.050278 
	C274.040436,161.842407 273.572479,159.768707 276.902924,157.277588 
	C278.996338,155.711746 279.788849,153.769653 279.982056,151.335083 
	C280.654419,142.862244 280.843628,134.392288 280.075836,125.913124 
	C279.825684,123.150871 279.272858,120.604637 276.445953,119.292305 
	C274.922272,118.584961 273.961761,117.505623 274.425201,115.763405 
	C274.912292,113.932106 276.347992,113.029343 278.147125,112.974495 
	C281.806030,112.862946 285.470245,112.940254 289.131073,112.873070 
	C297.767914,112.714569 306.425995,113.409393 315.007324,111.524422 
	C319.221130,110.598816 320.326080,114.156540 321.238037,117.191917 
	C322.201447,120.398460 323.080170,123.896309 319.623871,126.242455 
	C317.597443,127.618004 315.721191,126.512314 314.516907,124.659782 
	C310.948578,119.170677 305.479462,119.856796 300.157257,120.164055 
	C297.745331,120.303291 296.580963,121.987869 296.626343,124.223633 
	C296.687836,127.248871 295.042145,130.994675 298.113831,133.039566 
	C300.769836,134.807709 303.265747,133.561035 303.956726,130.091949 
	C304.354095,128.096756 304.593750,125.894646 307.331055,125.977524 
	C310.104370,126.061493 310.680817,128.324539 311.221802,130.456909 
	C312.441040,135.262680 312.173920,140.048981 310.720795,144.744553 
	C310.174866,146.508652 309.230408,148.236130 306.995575,148.239014 
	C304.738007,148.241913 304.504883,146.339523 304.161011,144.743362 
	C303.630249,142.280029 302.290253,140.772034 299.690552,141.045609 
	C296.948425,141.334152 297.011169,143.589218 296.969177,145.602310 
	C296.934479,147.265076 297.008118,148.931046 297.064026,150.594574 
	C297.178162,153.988617 298.794617,155.734161 302.341888,155.815964 
	C308.826324,155.965469 314.724915,155.193115 317.697052,148.229767 
	C318.492737,146.365494 320.096191,145.385040 322.168945,145.946838 
	C324.272003,146.516830 324.915649,148.315231 324.895721,150.233368 
	C324.849335,154.692062 323.293213,158.692719 320.778381,162.330399 
	C319.707642,163.879211 318.131317,164.225296 316.361694,163.971542 
	C303.927063,162.188568 291.417999,163.501236 278.506287,163.050278 
z"/>
<path fill="#FAF5EE" opacity="1.000000" stroke="none" 
	d="
M100.811615,421.420319 
	C104.398628,426.608826 102.108208,430.648651 98.750618,434.197205 
	C89.120827,444.374695 65.458817,444.694580 55.468758,434.924225 
	C49.079529,428.675476 48.891335,421.328369 55.154385,415.439758 
	C56.577656,414.101593 56.942127,413.124207 56.310925,411.188721 
	C54.054508,404.269806 56.147495,399.712982 62.730461,396.668915 
	C67.839104,394.306641 73.079887,394.244598 78.232941,396.399933 
	C80.844528,397.492279 83.049103,399.395294 81.512329,402.590210 
	C80.038651,405.653961 77.677986,404.991302 75.251801,403.419464 
	C72.898842,401.895050 70.366608,401.438904 69.050644,404.627838 
	C67.941978,407.314392 68.624382,409.549500 71.909187,410.284760 
	C73.607147,410.664795 75.098579,411.296143 75.077805,413.480072 
	C75.057747,415.589539 74.090607,417.154053 72.113701,417.591980 
	C66.890587,418.749023 67.578636,422.059784 69.045853,425.604919 
	C72.313614,433.500549 81.204292,436.474579 86.891548,431.645844 
	C89.648621,429.304962 90.261391,425.534363 88.028763,423.859375 
	C85.649696,422.074493 83.681808,423.084686 81.992935,425.112244 
	C81.045448,426.249725 80.149078,427.745850 78.340469,426.865265 
	C76.610207,426.022858 76.316246,424.246033 76.368530,422.573944 
	C76.505638,418.189850 78.734184,414.992554 82.525734,412.966370 
	C85.162270,411.557404 88.059441,410.615143 90.622429,409.096802 
	C92.375046,408.058563 95.876999,406.539246 90.820602,404.813324 
	C88.219498,403.925507 89.300858,402.290436 90.469101,400.975220 
	C93.495094,397.568573 101.115204,397.528961 104.733788,400.832123 
	C108.203758,403.999664 108.056198,409.467926 104.291771,413.286469 
	C103.133141,414.461731 101.825180,415.566254 100.404312,416.390808 
	C97.310242,418.186310 98.553352,419.640381 100.811615,421.420319 
z"/>
<path fill="#FAF6EF" opacity="1.000000" stroke="none" 
	d="
M400.785522,436.351898 
	C404.159790,434.454865 405.253784,431.870789 405.222778,428.349091 
	C405.174561,422.868500 405.587646,417.385132 405.740540,411.901093 
	C405.845825,408.124390 406.371857,404.449982 402.300842,401.725220 
	C399.799927,400.051300 401.384003,397.132690 403.754974,396.996552 
	C416.588562,396.259552 429.778351,393.529144 441.897827,399.977448 
	C449.460938,404.001434 452.546997,414.181580 450.371948,424.246552 
	C448.319214,433.745605 442.046509,440.297607 432.963531,440.941071 
	C423.540131,441.608673 414.045563,441.305634 404.581787,441.340729 
	C402.666504,441.347839 401.005402,440.566986 400.196930,438.242004 
	C400.160950,437.419830 400.281036,436.987061 400.785522,436.351898 
z"/>
<path fill="#FAF6EF" opacity="1.000000" stroke="none" 
	d="
M333.461243,399.349396 
	C342.298950,405.516266 345.477142,415.718597 342.196564,426.536926 
	C339.255951,436.234131 331.696259,441.590149 320.042114,441.391998 
	C312.732605,441.267761 305.437622,440.976929 298.127106,441.344482 
	C295.937378,441.454590 293.639099,441.216309 292.786163,438.661102 
	C291.988708,436.272125 293.902100,435.564880 295.512512,434.634644 
	C297.152069,433.687561 297.386230,431.894165 297.440155,430.255157 
	C297.696777,422.452148 297.842163,414.645508 298.023468,406.840057 
	C298.065430,405.034119 297.392120,403.624146 295.768738,402.709656 
	C294.384338,401.929871 293.305237,400.933350 293.819153,399.126007 
	C294.299042,397.438416 295.715363,396.640442 297.209320,396.622314 
	C309.250488,396.476349 321.451813,394.251404 333.461243,399.349396 
z"/>
<path fill="#FAF5EE" opacity="1.000000" stroke="none" 
	d="
M248.001282,404.191040 
	C246.077255,406.685883 246.790985,409.252045 246.709351,411.701294 
	C246.648712,413.520691 247.133484,415.002167 249.413986,415.058899 
	C251.357422,415.107239 252.577148,414.345337 253.008331,412.384094 
	C253.435410,410.441376 253.678467,408.045837 256.473175,408.469208 
	C258.832214,408.826599 259.422943,411.060913 259.702087,413.034637 
	C260.263367,417.003815 260.431641,421.003174 259.061096,424.884094 
	C258.547455,426.338623 257.824249,427.697449 256.062103,427.845398 
	C254.036041,428.015503 253.613144,426.428497 253.273956,424.958893 
	C252.794800,422.882935 251.650635,421.612396 249.458481,421.867035 
	C246.935471,422.160065 246.897827,424.238281 247.040665,426.060760 
	C247.260666,428.867920 245.895370,432.353851 249.614609,433.935059 
	C253.264786,435.486877 260.740295,433.792816 263.133118,430.968231 
	C263.985321,429.962311 264.583191,428.742645 265.313019,427.630981 
	C266.222382,426.245880 267.479858,425.529388 269.137787,425.974884 
	C270.844666,426.433472 271.515106,427.888916 271.530121,429.416260 
	C271.570679,433.538239 270.193817,437.251526 267.694550,440.519867 
	C266.950470,441.492950 265.875061,442.003540 264.612183,441.796112 
	C253.854492,440.029053 243.016190,441.349213 232.223694,440.935516 
	C230.397461,440.865509 228.350815,441.106506 227.573990,438.915344 
	C226.815750,436.776520 228.778641,436.114471 230.012283,435.101593 
	C231.732697,433.689087 231.924728,431.718506 232.042374,429.686157 
	C232.398529,423.533203 232.634308,417.385223 232.205933,411.221802 
	C231.963303,407.731079 232.254013,404.124390 228.250977,402.259399 
	C227.066956,401.707703 226.860855,400.429932 227.292099,399.211212 
	C227.793869,397.793213 228.974701,397.113556 230.375778,397.061584 
	C233.867233,396.932068 237.363693,396.942749 240.857697,396.874695 
	C247.838348,396.738831 254.846390,397.348175 261.785797,396.074707 
	C264.371948,395.600098 266.439178,396.390656 267.545807,398.882477 
	C268.779144,401.659576 269.902740,404.632294 268.155914,407.480957 
	C266.715973,409.829163 264.342010,409.795288 262.753052,407.725342 
	C258.852905,402.644562 253.818359,402.687347 248.001282,404.191040 
z"/>
<path fill="#FAF6EF" opacity="1.000000" stroke="none" 
	d="
M227.177292,118.531334 
	C226.391846,114.864815 228.661911,113.649315 231.155777,113.002831 
	C238.191391,111.178978 245.323639,111.515549 252.423920,112.624481 
	C254.246613,112.909142 256.009674,113.708534 256.454620,115.841217 
	C256.934906,118.143112 255.332565,119.085709 253.622971,119.943756 
	C251.108749,121.205627 250.975403,123.531136 250.981186,125.932343 
	C250.998413,133.085663 250.972885,140.239136 251.001923,147.392395 
	C251.015045,150.624939 251.017136,154.114441 255.157974,154.829681 
	C259.317017,155.548050 263.089478,154.763672 265.469910,150.617889 
	C266.725250,148.431580 266.554382,143.966736 270.676849,145.491638 
	C274.778839,147.008957 274.273621,151.054886 273.521118,154.548828 
	C271.769501,162.681900 268.945862,164.209976 260.604645,163.579437 
	C252.663269,162.979126 244.653336,163.292175 236.673782,163.185562 
	C234.679092,163.158920 232.680969,163.122742 230.692612,162.978333 
	C229.251923,162.873703 228.157486,162.118820 227.798477,160.647522 
	C227.432449,159.147552 228.080719,157.938324 229.413986,157.356918 
	C232.997086,155.794373 233.318604,152.748520 233.285828,149.454010 
	C233.216370,142.469208 232.901154,135.471237 233.223709,128.503510 
	C233.446533,123.690025 231.819855,120.565819 227.177292,118.531334 
z"/>
<path fill="#FAF5EE" opacity="1.000000" stroke="none" 
	d="
M400.661377,436.117218 
	C400.859344,436.579285 400.684937,437.046906 400.343719,437.702454 
	C397.663818,440.961456 394.300049,442.013916 390.482239,441.921936 
	C386.004333,441.814026 381.473236,442.045258 377.065216,441.422089 
	C372.540985,440.782410 371.808502,438.429688 374.800842,435.180603 
	C377.297668,432.469574 375.959412,431.282959 373.236938,430.988800 
	C369.951111,430.633820 366.610504,430.718170 363.294525,430.742767 
	C361.944275,430.752777 360.612671,431.160858 360.243256,432.772308 
	C359.909058,434.230042 361.065765,434.664001 361.957214,435.435577 
	C364.710083,437.818359 364.367615,439.952850 360.876953,441.101990 
	C356.528473,442.533478 352.034454,442.265564 347.597778,441.285889 
	C346.027954,440.939240 344.831940,440.104980 344.679932,438.332764 
	C344.544525,436.754303 345.495605,435.793121 346.804199,435.304565 
	C349.764252,434.199524 351.053223,431.685608 352.190826,429.086090 
	C356.165344,420.004181 361.441833,411.477692 362.285492,401.141083 
	C362.715576,395.871979 369.748230,394.109619 374.723999,397.600891 
	C377.941315,399.858307 379.968506,403.154114 381.706024,406.569336 
	C385.473663,413.975067 389.287323,421.367310 392.716095,428.931061 
	C394.340485,432.514404 396.492828,435.059662 400.661377,436.117218 
z"/>
<path fill="#FAF6EF" opacity="1.000000" stroke="none" 
	d="
M139.503021,406.209534 
	C137.594025,408.053528 136.134766,409.867493 134.488373,411.491730 
	C133.102066,412.859406 131.321289,413.399200 129.436890,412.573669 
	C127.525757,411.736420 126.987373,410.049805 126.914719,408.079437 
	C126.642761,400.705200 132.099426,395.967682 139.327515,396.550781 
	C147.097458,397.177612 154.957657,397.558990 162.702682,396.236816 
	C166.330414,395.617493 168.876312,396.658783 170.839203,399.569794 
	C173.082672,402.896912 174.235275,406.541138 172.770233,410.419800 
	C171.672729,413.325439 167.700851,413.948578 165.186493,411.694061 
	C163.980484,410.612671 163.171814,409.080444 162.218475,407.727509 
	C161.520798,406.737396 160.772873,405.783966 159.403046,406.160400 
	C157.980835,406.551208 157.923386,407.848175 157.919510,409.001770 
	C157.896545,415.822723 157.921646,422.643829 157.931686,429.464905 
	C157.935349,431.963104 159.515411,433.173920 161.464432,434.428986 
	C164.414963,436.328918 164.278473,439.273804 160.978821,440.382812 
	C153.378952,442.937164 145.553574,442.873718 137.992142,440.204224 
	C134.607727,439.009369 134.566818,436.234558 137.751144,434.463074 
	C139.699951,433.378937 140.950684,432.188385 141.053619,429.949341 
	C141.359070,423.304535 141.715012,416.661255 141.925110,410.013397 
	C141.974152,408.461060 142.235016,406.513062 139.503021,406.209534 
z"/>
<path fill="#FAF6F0" opacity="1.000000" stroke="none" 
	d="
M217.428101,163.809479 
	C212.008682,163.840225 206.977249,164.249268 202.060364,163.675903 
	C196.405212,163.016403 195.491150,160.066925 199.260254,155.919540 
	C200.738998,154.292404 201.066391,152.427658 201.196304,150.424072 
	C201.626785,143.785522 201.957214,137.151245 201.489319,130.491333 
	C201.196457,126.322815 201.191833,122.352898 197.132172,119.455055 
	C194.639069,117.675453 195.621262,114.994019 198.259171,113.973717 
	C206.097641,110.941910 214.222031,110.834435 222.171417,113.293015 
	C225.631104,114.363029 225.863739,117.477020 222.881088,119.669983 
	C220.770950,121.221420 219.896515,123.033875 219.672333,125.494377 
	C218.915817,133.797501 218.875519,142.094604 219.643768,150.396072 
	C219.814957,152.245865 220.055725,154.032669 221.921265,155.095901 
	C223.699066,156.109146 225.448013,157.262894 224.796265,159.741135 
	C224.203812,161.993881 222.261063,162.648422 220.291626,163.177490 
	C219.489609,163.392929 218.675369,163.562943 217.428101,163.809479 
z"/>
<path fill="#FF9767" opacity="1.000000" stroke="none" 
	d="
M362.042114,240.000061 
	C361.973083,274.145203 361.854370,307.790588 361.936249,341.435486 
	C361.946014,345.445587 360.778595,347.821594 357.092896,349.647308 
	C348.435852,353.935608 339.879303,358.386658 330.717529,361.569122 
	C327.329834,362.745911 325.772888,362.813416 325.749207,358.296112 
	C325.468292,304.670807 323.578918,251.065262 323.707397,197.433105 
	C323.714172,194.605774 323.545044,191.773926 323.355438,188.951050 
	C322.933594,182.671234 323.074554,182.274414 329.517700,183.138107 
	C337.924835,184.265076 346.258667,185.928894 354.638611,187.270721 
	C363.052277,188.617920 363.064240,188.569000 362.897491,197.045441 
	C362.619049,211.197067 362.334717,225.348602 362.042114,240.000061 
z"/>
<path fill="#FF9A6C" opacity="1.000000" stroke="none" 
	d="
M264.314850,302.227722 
	C263.996674,264.996735 264.037109,227.998993 263.893921,191.001938 
	C263.878876,187.113617 265.008087,185.948410 268.928223,185.784164 
	C284.066467,185.149963 299.258484,185.261490 314.314209,183.277084 
	C318.142273,182.772537 317.923035,185.078110 317.940521,187.471085 
	C318.046509,201.969040 318.043610,216.468460 318.253204,230.964844 
	C318.821655,270.281982 319.408386,309.599182 320.189514,348.912415 
	C320.285522,353.744507 319.120148,354.804504 314.093628,354.712250 
	C298.365936,354.423523 283.035522,350.675873 267.389862,350.073425 
	C263.766418,349.933929 263.962952,347.839722 263.966736,345.425964 
	C263.987915,331.926788 263.988861,318.427643 263.989990,304.459229 
	C266.701233,302.290863 269.767548,302.836792 272.685791,302.796570 
	C283.621033,302.645752 294.564728,302.426086 305.479645,303.494904 
	C294.181915,302.273590 282.935364,300.215820 271.488403,301.852142 
	C269.215759,302.177032 266.977173,303.033844 264.314850,302.227722 
z"/>
<path fill="#FF9A6B" opacity="1.000000" stroke="none" 
	d="
M123.667603,201.327087 
	C122.577332,193.249283 122.586494,193.387222 130.096603,192.888367 
	C151.695663,191.453613 173.437546,192.518723 194.937225,189.770706 
	C214.145523,187.315536 233.401871,186.503632 252.715775,186.005356 
	C257.067963,185.893082 258.405243,187.074829 258.393066,191.539169 
	C258.247620,244.842651 258.258484,298.146759 258.378754,351.450378 
	C258.388123,355.609772 257.529938,356.904724 253.100479,356.197327 
	C231.736786,352.785492 210.345779,349.522797 188.917831,346.542603 
	C173.760330,344.434509 158.374054,344.199463 143.314621,341.170563 
	C137.589737,340.019104 131.323517,339.477478 126.699150,336.157074 
	C121.323235,332.297089 124.050743,325.337433 123.667007,319.837219 
	C122.286789,300.054047 122.951874,280.221741 123.469078,260.407410 
	C123.673294,252.583740 123.842621,244.759140 124.089661,236.470276 
	C124.683441,235.611694 125.273506,235.480194 126.323509,235.853775 
	C128.761246,238.325867 128.231247,241.121964 128.247955,243.719070 
	C128.351944,259.878937 128.454361,276.041718 128.237335,292.198975 
	C128.100266,302.403656 129.886032,312.425720 130.411087,322.557526 
	C130.605118,326.301971 132.743011,328.064911 136.296265,328.882660 
	C148.330276,331.652252 160.554565,333.217224 172.790314,334.575195 
	C196.927704,337.254028 221.194626,338.665283 245.280579,341.893677 
	C251.214874,342.689087 252.372711,341.536438 252.677856,335.660492 
	C253.878769,312.534912 254.073227,289.383423 253.529221,266.251740 
	C253.315033,257.144165 253.064789,247.971756 251.951340,238.870346 
	C250.750015,229.050659 253.018494,219.289139 252.766327,209.451492 
	C252.475342,198.099686 251.795746,197.733078 240.185104,198.795273 
	C230.263580,199.702957 220.257309,200.043427 210.283401,200.227188 
	C195.793793,200.494186 181.293655,200.452942 166.802490,200.241333 
	C157.414307,200.104248 148.232773,201.703217 138.987518,202.792175 
	C134.807571,203.284531 130.695358,203.431046 126.125793,202.412506 
	C125.057114,202.243866 124.492203,202.019119 123.667603,201.327087 
z"/>
<path fill="#FF9A6B" opacity="1.000000" stroke="none" 
	d="
M378.182678,327.911957 
	C379.692261,334.931244 376.144745,338.381470 370.912842,341.326324 
	C367.642670,343.166962 367.067566,342.572449 367.083862,339.155151 
	C367.163269,322.508606 367.015228,305.860626 367.143616,289.214661 
	C367.338684,263.917053 367.670074,238.620316 368.041870,213.324631 
	C368.065826,211.695663 367.136017,208.567352 369.158875,208.673172 
	C371.621674,208.801971 374.705688,210.129745 375.134460,213.641220 
	C375.194733,214.134567 375.177399,214.638672 375.177979,215.137833 
	C375.220001,252.592896 377.854858,289.978577 378.182678,327.911957 
z"/>
<path fill="#FF9A6C" opacity="1.000000" stroke="none" 
	d="
M288.624695,372.284576 
	C252.425369,369.708344 216.911591,365.712341 182.166473,356.387115 
	C171.027740,353.397614 159.411896,353.435730 148.019928,352.044220 
	C147.028885,351.923126 146.023438,351.884460 145.045685,351.697632 
	C143.146469,351.334747 141.880569,349.950073 142.127304,348.217102 
	C142.447952,345.964935 144.521484,347.014343 145.801041,347.167725 
	C175.864655,350.771423 205.927643,354.296722 235.850647,359.069824 
	C263.280762,363.445343 290.876678,366.839142 318.600922,368.927826 
	C320.677155,369.084229 321.997742,369.724823 322.901733,371.613159 
	C324.278473,374.489014 324.448181,376.466919 320.311096,376.001038 
	C313.531799,375.237640 306.750946,374.488098 299.974121,373.703400 
	C296.337860,373.282379 292.708710,372.800262 288.624695,372.284576 
z"/>
<path fill="#FBEEE3" opacity="1.000000" stroke="none" 
	d="
M263.845337,302.165192 
	C267.484680,299.111115 271.772888,299.322479 275.852051,299.119019 
	C287.001251,298.562988 298.050537,300.299042 309.153320,300.869324 
	C310.950226,300.961578 312.667450,301.462921 312.628082,303.582153 
	C312.588654,305.703766 310.872223,306.221802 309.058899,306.121948 
	C302.596100,305.766052 296.138733,305.308411 289.674683,304.979675 
	C282.704926,304.625183 275.726257,304.401672 268.782257,305.349518 
	C267.181213,305.568085 265.826721,305.329224 264.301605,304.129822 
	C263.477417,303.512604 263.233063,302.987518 263.845337,302.165192 
z"/>
<path fill="#FF9A6C" opacity="1.000000" stroke="none" 
	d="
M336.482025,373.466919 
	C334.038300,373.716736 331.880615,375.897003 330.053864,374.201874 
	C328.884277,373.116486 328.384003,370.944000 328.255219,369.209015 
	C328.134308,367.579498 330.065369,367.532806 331.245178,367.152161 
	C339.490417,364.492157 347.275177,360.792114 355.002747,356.927948 
	C356.405304,356.226624 358.578583,353.906219 359.522919,356.037872 
	C360.512543,358.271606 361.204987,361.691376 357.959412,363.544373 
	C351.203857,367.401154 344.777374,371.984772 336.482025,373.466919 
z"/>
<path fill="#FF9C6F" opacity="1.000000" stroke="none" 
	d="
M299.981110,361.989014 
	C287.796936,360.430176 276.057983,358.909851 263.705414,357.310059 
	C265.696777,354.512329 267.829956,355.237915 269.581635,355.430664 
	C285.414734,357.172943 301.129211,360.095215 317.136444,360.088806 
	C318.439117,360.088287 320.117889,360.070465 319.923340,362.017548 
	C319.731842,363.933960 318.086609,363.533905 316.797150,363.427246 
	C311.338989,362.975708 305.883057,362.496552 299.981110,361.989014 
z"/>
<path fill="#FF9C6F" opacity="1.000000" stroke="none" 
	d="
M366.219910,351.452698 
	C369.725983,348.469147 373.118530,345.905670 377.106201,343.938690 
	C376.753143,347.726166 370.388794,356.428162 367.247559,356.414917 
	C363.589081,356.399536 366.356598,353.404907 366.219910,351.452698 
z"/>
<path fill="#FF9C6F" opacity="1.000000" stroke="none" 
	d="
M123.309372,201.412354 
	C123.747910,200.995117 124.137520,201.005585 124.819366,201.025970 
	C126.064240,201.747162 126.838188,202.595520 126.954170,203.836716 
	C127.842354,213.342896 128.903870,222.843124 128.053879,232.416580 
	C127.948753,233.600647 127.595238,234.671417 126.274780,235.757721 
	C125.468285,236.004852 125.091988,236.004990 124.433578,236.005371 
	C123.854462,224.617065 123.557449,213.228561 123.309372,201.412354 
z"/>
<path fill="#FF9A6B" opacity="1.000000" stroke="none" 
	d="
M167.869873,63.132500 
	C175.583755,65.377808 179.056900,75.335533 174.677261,81.613342 
	C172.894562,84.168701 170.321365,85.200714 167.319809,84.700684 
	C164.464554,84.225029 163.894318,81.796227 163.701263,79.427490 
	C163.392380,75.637451 163.168854,71.831833 163.135605,68.030815 
	C163.111267,65.251640 164.250778,63.183098 167.869873,63.132500 
z"/>
<path fill="#FF9A6C" opacity="1.000000" stroke="none" 
	d="
M173.353394,47.021053 
	C172.687408,49.423290 171.639099,51.036053 169.679245,51.970123 
	C165.925537,53.759125 163.406860,52.469707 163.153107,48.333191 
	C162.929108,44.682034 163.036880,41.006474 163.098389,37.343372 
	C163.135162,35.152840 163.231796,32.766903 165.999939,32.218624 
	C168.553314,31.712891 170.619095,32.892906 171.922836,35.046215 
	C174.102951,38.646980 174.370239,42.579224 173.353394,47.021053 
z"/>
<path fill="#FF9A6B" opacity="1.000000" stroke="none" 
	d="
M432.199829,409.102417 
	C434.462952,415.427490 434.576965,421.481079 433.117523,427.594910 
	C432.517242,430.109558 431.290802,432.245453 429.017120,433.598724 
	C424.486023,436.295746 421.151520,434.553955 421.067169,429.350586 
	C420.962189,422.875031 420.948700,416.394867 421.079163,409.920380 
	C421.122681,407.759735 419.953735,404.792297 422.845184,403.758026 
	C425.973175,402.639160 428.650513,404.223267 430.745544,406.629852 
	C431.281281,407.245270 431.617188,408.034637 432.199829,409.102417 
z"/>
<path fill="#FF9A6C" opacity="1.000000" stroke="none" 
	d="
M316.312805,434.644897 
	C313.544006,433.729614 313.376251,431.667053 313.360779,429.657227 
	C313.304474,422.343231 313.350250,415.028534 313.324005,407.714233 
	C313.309967,403.800751 315.230438,402.774109 318.797729,403.768951 
	C322.220978,404.723602 324.078247,407.151581 325.052979,410.302704 
	C326.810089,415.982941 326.868164,421.796753 325.529144,427.543335 
	C324.475708,432.064331 321.646759,434.803192 316.312805,434.644897 
z"/>
<path fill="#FF9C6F" opacity="1.000000" stroke="none" 
	d="
M369.254028,414.737854 
	C369.973724,415.671387 370.541168,416.303589 370.852692,417.043549 
	C371.517853,418.623322 373.524078,420.184143 372.298645,421.870941 
	C371.030853,423.615936 368.640381,422.648621 366.739441,422.707855 
	C364.624847,422.773743 363.443420,421.676666 364.593262,419.659668 
	C365.705261,417.709015 364.844299,413.895111 369.254028,414.737854 
z"/>
<path fill="#FAF2EA" opacity="1.000000" stroke="none" 
	d="
M300.971130,187.167297 
	C316.980469,187.304642 314.767578,185.397797 314.863373,200.830444 
	C315.007019,223.970993 315.027496,247.112320 315.093231,270.253326 
	C315.097015,271.584564 315.107391,272.922058 314.993927,274.246307 
	C314.410980,281.051178 313.179962,282.283203 306.325775,282.062408 
	C295.348480,281.708832 284.379547,281.099701 273.403076,280.711761 
	C269.653229,280.579224 268.172791,278.891968 268.052246,275.137146 
	C267.203064,248.688416 266.202606,222.244537 265.284485,195.797943 
	C265.086792,190.102890 266.162659,188.768890 272.046356,188.237778 
	C281.497925,187.384598 290.977753,186.920578 300.971130,187.167297 
z"/>
<path fill="#FBEEE3" opacity="1.000000" stroke="none" 
	d="
M291.999481,320.135681 
	C297.826965,320.139740 303.154877,320.118011 308.482239,320.160645 
	C310.531342,320.177032 312.869324,320.316803 312.857605,323.040863 
	C312.845825,325.772949 310.503510,325.869965 308.454529,325.873016 
	C295.801270,325.891876 283.148010,325.892883 270.494812,325.871124 
	C268.450623,325.867615 266.111786,325.782074 266.127563,323.017181 
	C266.143188,320.277008 268.481842,320.172546 270.521973,320.161133 
	C277.514374,320.122070 284.507080,320.139587 291.999481,320.135681 
z"/>
<path fill="#FAF2EA" opacity="1.000000" stroke="none" 
	d="
M292.885010,337.168121 
	C284.940826,336.801514 277.481506,336.451813 270.023132,336.082397 
	C267.976959,335.981049 265.674469,335.871796 265.956116,333.008881 
	C266.210876,330.419220 268.495392,330.811737 270.256531,330.867310 
	C283.197296,331.275482 296.136566,331.731476 309.075806,332.188049 
	C310.967834,332.254822 313.024353,332.478729 313.067932,334.917938 
	C313.118591,337.751984 310.834808,337.835571 308.792572,337.776215 
	C303.650330,337.626862 298.510803,337.383362 292.885010,337.168121 
z"/>
<path fill="#FAF2EA" opacity="1.000000" stroke="none" 
	d="
M293.231018,342.804077 
	C298.669983,343.110016 303.637543,343.355469 308.596161,343.721466 
	C310.331238,343.849487 312.074188,344.454559 311.842224,346.647400 
	C311.615845,348.787628 309.826111,349.112762 308.078552,348.952240 
	C296.187469,347.860291 284.184174,348.342712 272.358124,346.461975 
	C270.290588,346.133209 266.875214,346.556335 267.260284,343.162781 
	C267.643707,339.784088 270.787262,340.951202 272.933746,341.106781 
	C279.547150,341.586090 286.149475,342.218201 293.231018,342.804077 
z"/>
<path fill="#FAF3EB" opacity="1.000000" stroke="none" 
	d="
M266.902466,312.016144 
	C268.133362,309.212311 270.351929,309.832733 272.255157,309.807343 
	C283.938080,309.651337 295.518768,311.340729 307.168671,311.809906 
	C308.989380,311.883209 310.701538,312.403564 310.563721,314.558319 
	C310.428986,316.665466 308.652557,317.094299 306.857819,316.995911 
	C299.042511,316.567474 291.230072,316.086853 283.415405,315.646545 
	C279.260162,315.412415 275.103271,315.203461 270.945496,315.019928 
	C269.067383,314.937042 267.156647,314.990143 266.902466,312.016144 
z"/>
<path fill="#FAF2EA" opacity="1.000000" stroke="none" 
	d="
M270.050659,286.773376 
	C270.849579,286.104858 271.330750,285.530579 271.929291,285.354034 
	C275.197174,284.389984 278.256317,284.753113 280.479309,287.564575 
	C281.635712,289.027130 281.440033,290.854919 279.972687,292.053589 
	C277.160492,294.350922 273.813629,294.792694 270.618469,293.253937 
	C267.661835,291.830078 267.906281,289.415527 270.050659,286.773376 
z"/>
<path fill="#FAF2EA" opacity="1.000000" stroke="none" 
	d="
M304.904175,286.882294 
	C307.759003,290.048981 307.598389,293.111145 304.639893,295.278503 
	C301.971832,297.233124 299.250244,295.987915 297.354004,293.450684 
	C296.186005,291.887878 295.861023,290.025177 297.198975,288.415497 
	C299.167969,286.046600 301.609192,285.026031 304.904175,286.882294 
z"/>
<path fill="#FAF3EB" opacity="1.000000" stroke="none" 
	d="
M125.906929,236.469513 
	C126.544678,224.624283 125.095093,213.301971 125.017776,201.490509 
	C136.417648,200.955597 147.572327,198.331955 158.784225,198.212173 
	C189.081390,197.888535 219.379623,197.953064 249.634903,196.086212 
	C253.642151,195.838959 255.095383,197.243408 254.900726,201.133057 
	C253.076401,237.587006 257.418915,273.989319 255.842880,310.445923 
	C255.425949,320.090515 255.112167,329.744232 255.025360,339.396240 
	C254.987595,343.595215 253.254211,345.086304 249.238602,344.638977 
	C237.502518,343.331512 225.762146,342.059204 214.015503,340.850616 
	C192.833084,338.671234 171.551315,337.403015 150.505600,333.978943 
	C145.088287,333.097534 139.734360,331.790955 134.300110,331.060669 
	C130.082626,330.493866 128.582306,328.444641 128.115082,324.253662 
	C125.821655,303.682007 125.836693,283.054535 126.001083,262.409882 
	C126.068703,253.918655 125.984451,245.426224 125.906929,236.469513 
z"/>
<path fill="#FF9A6C" opacity="1.000000" stroke="none" 
	d="
M309.025146,212.000763 
	C309.264679,231.291275 309.445984,250.083099 309.794434,268.871826 
	C309.933716,276.381439 309.303894,277.192474 301.801666,276.740356 
	C293.834076,276.260193 285.875580,275.532013 277.901764,275.297180 
	C274.364929,275.193024 273.337280,273.763947 273.275452,270.517059 
	C273.088684,260.707672 272.735718,250.901169 272.412933,241.094666 
	C271.947876,226.965820 271.541901,212.833939 270.902924,198.712753 
	C270.754700,195.436798 271.695831,193.704483 275.018860,193.440872 
	C285.481018,192.610855 295.962006,192.828491 306.439819,192.833939 
	C309.035004,192.835281 309.318542,194.550293 309.286224,196.533051 
	C309.204926,201.522354 309.118408,206.511581 309.025146,212.000763 
z"/>
<path fill="#FF9C6F" opacity="1.000000" stroke="none" 
	d="
M184.411713,203.546997 
	C204.015396,203.308884 223.154785,202.870361 242.282059,201.909302 
	C249.316544,201.555862 249.644333,201.748489 249.262268,208.874710 
	C247.671799,238.540375 251.803314,268.099182 250.738388,297.750793 
	C250.296173,310.063904 249.997299,322.384216 249.834793,334.703918 
	C249.787842,338.261902 248.458893,339.445190 245.026535,338.929535 
	C210.951157,333.810211 176.322281,333.493958 142.390274,327.087463 
	C133.748596,325.455841 133.887512,325.567017 133.019424,316.969208 
	C129.831665,285.396637 132.076904,253.721466 131.094254,222.109238 
	C130.964890,217.947479 130.886520,213.784134 130.777039,209.621719 
	C130.730942,207.868790 130.764542,206.276337 133.172943,206.101517 
	C150.081680,204.874069 166.896851,201.837692 184.411713,203.546997 
z"/>
<path fill="#FAF3EB" opacity="1.000000" stroke="none" 
	d="
M283.299622,228.950104 
	C274.228119,222.867325 271.927368,214.963516 276.789337,204.968124 
	C279.029114,200.363510 280.385284,194.475174 287.864990,194.692078 
	C296.040985,194.929184 302.562592,197.414368 306.272491,205.051529 
	C309.734741,212.178833 308.323059,221.719116 303.042725,226.930191 
	C297.214325,232.682114 290.537262,232.170258 283.299622,228.950104 
z"/>
<path fill="#FAF2EA" opacity="1.000000" stroke="none" 
	d="
M288.234100,238.007782 
	C297.967865,236.349884 303.614166,238.896225 306.258026,245.887390 
	C309.575500,254.659790 306.167877,266.038269 298.804962,270.774078 
	C292.704895,274.697632 283.989807,273.331909 278.293762,267.551300 
	C276.755280,265.989929 275.604523,264.188538 275.003693,262.061646 
	C272.808167,254.289810 280.084808,240.688431 288.234100,238.007782 
z"/>
<path fill="#FAF2EA" opacity="1.000000" stroke="none" 
	d="
M133.800278,232.851074 
	C133.842163,228.037964 134.108215,223.693283 133.850327,219.379944 
	C133.548233,214.326965 135.630554,212.297836 140.664368,211.786179 
	C161.071228,209.711945 181.529083,209.213577 202.016037,208.979080 
	C214.984421,208.830673 227.976013,209.847244 240.921753,208.341537 
	C243.428085,208.050003 244.085342,209.535156 244.192169,211.641815 
	C246.147202,250.195328 249.288498,288.711700 247.745041,327.373505 
	C247.475723,334.119690 247.330658,334.596588 240.534744,334.214111 
	C216.083710,332.838074 191.731155,330.617035 167.848221,324.768829 
	C159.742752,322.784058 151.511658,321.380676 143.127365,321.837952 
	C139.038956,322.060974 137.825607,320.174561 137.018295,316.454712 
	C131.042450,288.919159 132.993744,261.109985 133.800278,232.851074 
z"/>
<path fill="#FF9A6B" opacity="1.000000" stroke="none" 
	d="
M296.632050,202.103943 
	C301.808136,205.783005 303.400757,210.574615 302.323517,216.277908 
	C301.012970,223.216599 296.530334,226.795715 290.669495,225.794754 
	C283.063812,224.495804 279.018250,219.321564 280.073303,212.170471 
	C280.241486,211.030350 280.572662,209.899734 280.951965,208.807617 
	C284.118042,199.691696 287.158905,198.335129 296.632050,202.103943 
z"/>
<path fill="#FF9A6B" opacity="1.000000" stroke="none" 
	d="
M282.734985,264.224457 
	C279.397980,260.975403 279.468109,257.530731 280.967590,253.859253 
	C283.818787,246.878159 288.976135,242.621994 294.215851,242.871017 
	C296.115601,242.961304 297.805908,243.444992 299.210663,244.773834 
	C303.031433,248.388138 302.967926,257.213715 299.074280,262.919861 
	C295.688812,267.881287 291.093597,268.844482 285.125092,265.812622 
	C284.388977,265.438690 283.724670,264.923431 282.734985,264.224457 
z"/>
<path fill="#FF9767" opacity="1.000000" stroke="none" 
	d="
M242.280975,299.000244 
	C242.227142,307.660706 241.993164,315.825592 242.196365,323.979584 
	C242.294952,327.935547 241.049591,329.276672 237.057999,328.872620 
	C214.209473,326.559753 191.257141,325.104645 168.871262,319.385284 
	C161.610123,317.530151 154.160965,316.414734 146.654892,316.237885 
	C143.483826,316.163208 142.530197,314.883881 141.837799,311.960358 
	C138.305038,297.044006 138.480881,281.866791 138.488174,266.729584 
	C138.495316,251.912155 139.165802,237.096024 139.310257,222.277023 
	C139.347931,218.412674 140.776886,217.250412 144.538635,216.880920 
	C174.276886,213.959915 204.103775,214.933411 233.899429,214.568344 
	C236.122177,214.541092 238.290726,214.483139 238.381683,217.740433 
	C238.902283,236.381134 242.365372,254.821304 242.165146,273.518707 
	C242.075974,281.844513 242.234558,290.172974 242.280975,299.000244 
z"/>
</svg>