<svg version="1.1" id="Layer_1" xmlns="http://www.w3.org/2000/svg" xmlns:xlink="http://www.w3.org/1999/xlink" x="0px" y="0px"
	 width="100%" viewBox="0 0 980 980" enable-background="new 0 0 980 980" xml:space="preserve">
<path fill="#000000" opacity="1.000000" stroke="none" 
	d="
M883.000000,0.999998 
	C889.687622,1.000000 896.375305,1.000000 903.667358,1.380576 
	C937.524292,5.242126 967.012817,29.731787 976.958923,62.316204 
	C978.626526,67.779610 979.668823,73.433899 981.000000,79.000000 
	C981.000000,85.354401 981.000000,91.708794 980.654541,98.724152 
	C977.364990,120.417213 967.895874,137.976761 952.886780,152.965561 
	C841.492432,264.209045 730.210144,375.564758 618.866272,486.858765 
	C617.592468,488.132019 615.968384,489.054901 613.214050,491.103668 
	C615.831970,492.928406 617.523682,493.773529 618.793640,495.041168 
	C656.406189,532.583557 693.978882,570.165894 731.553772,607.746033 
	C805.407959,681.610168 879.226318,755.510193 953.145081,829.309692 
	C965.579956,841.724609 974.342163,856.083923 978.516052,873.189636 
	C979.315735,876.466675 980.170593,879.730225 981.000000,883.000000 
	C981.000000,890.020935 981.000000,897.041931 980.640381,904.687866 
	C973.373535,943.326843 951.583191,967.928650 914.266174,978.501587 
	C910.880005,979.460999 907.423706,980.173096 904.000000,981.000000 
	C897.312378,981.000000 890.624695,981.000000 883.274780,980.655396 
	C861.569397,977.368408 844.016235,967.876831 829.022949,952.862061 
	C717.619019,841.298157 606.100342,729.848816 494.655975,618.325195 
	C493.513702,617.182068 492.887238,615.523376 491.416962,613.119507 
	C489.096497,616.065918 488.100647,617.632507 486.819611,618.913940 
	C376.297791,729.476624 265.754150,840.017456 155.210266,950.558105 
	C153.206894,952.561401 151.220749,954.584167 149.161316,956.528748 
	C137.928055,967.135193 124.894653,974.502075 109.848000,978.172119 
	C105.588806,979.210999 101.283920,980.062500 97.000000,981.000000 
	C90.645599,981.000000 84.291206,981.000000 77.311951,980.640320 
	C38.644760,973.395691 14.104976,951.531372 3.441902,914.266052 
	C2.651540,911.503967 1.815054,908.755066 1.000001,906.000000 
	C1.000000,898.312439 1.000000,890.624817 1.359384,882.312073 
	C5.011882,860.930176 14.518234,843.603027 29.412060,828.735474 
	C140.844238,717.499573 252.120605,606.107605 363.502014,494.820831 
	C364.743500,493.580414 366.732544,493.088226 368.708405,492.074432 
	C365.690521,489.262939 364.435669,488.164124 363.258789,486.987366 
	C251.919098,375.658844 140.585342,264.324402 29.251242,152.990295 
	C28.426544,152.165604 27.597626,151.345062 26.778173,150.515198 
	C15.168925,138.758438 7.425064,124.845985 3.459537,108.809311 
	C2.728016,105.851028 1.824260,102.935349 1.000000,100.000000 
	C1.000000,92.312424 1.000000,84.624847 1.368652,76.347687 
	C2.082603,74.303719 2.437809,72.851593 2.771747,71.394592 
	C10.919196,35.846684 32.745583,13.370320 67.708344,3.459857 
	C70.790352,2.586239 73.902077,1.817468 77.000000,1.000000 
	C83.687645,1.000000 90.375290,1.000000 97.700974,1.370185 
	C100.317093,1.991648 102.314392,2.141059 104.270279,2.509999 
	C123.357002,6.110324 139.241852,15.379464 152.931519,29.084368 
	C264.193298,140.469986 375.557648,251.753204 486.834717,363.123566 
	C488.190216,364.480164 488.808990,366.572906 490.020599,368.774353 
	C492.910309,365.577118 494.082153,364.160278 495.376404,362.865753 
	C570.879150,287.344635 646.390808,211.832321 721.904541,136.322174 
	C757.834595,100.393852 793.825317,64.526024 829.673828,28.516535 
	C841.952148,16.183039 856.258728,7.625574 873.174683,3.469180 
	C876.454102,2.663408 879.725098,1.823931 883.000000,0.999998 
z"/>
<path fill="#FFFFFF" opacity="1.000000" stroke="none" 
	d="
M97.468658,981.000000 
	C101.283920,980.062500 105.588806,979.210999 109.848000,978.172119 
	C124.894653,974.502075 137.928055,967.135193 149.161316,956.528748 
	C151.220749,954.584167 153.206894,952.561401 155.210266,950.558105 
	C265.754150,840.017456 376.297791,729.476624 486.819611,618.913940 
	C488.100647,617.632507 489.096497,616.065918 491.416962,613.119507 
	C492.887238,615.523376 493.513702,617.182068 494.655975,618.325195 
	C606.100342,729.848816 717.619019,841.298157 829.022949,952.862061 
	C844.016235,967.876831 861.569397,977.368408 882.806213,980.655396 
	C621.312439,981.000000 359.624878,981.000000 97.468658,981.000000 
z"/>
<path fill="#FFFFFF" opacity="1.000000" stroke="none" 
	d="
M882.531372,0.999998 
	C879.725098,1.823931 876.454102,2.663408 873.174683,3.469180 
	C856.258728,7.625574 841.952148,16.183039 829.673828,28.516535 
	C793.825317,64.526024 757.834595,100.393852 721.904541,136.322174 
	C646.390808,211.832321 570.879150,287.344635 495.376404,362.865753 
	C494.082153,364.160278 492.910309,365.577118 490.020599,368.774353 
	C488.808990,366.572906 488.190216,364.480164 486.834717,363.123566 
	C375.557648,251.753204 264.193298,140.469986 152.931519,29.084368 
	C139.241852,15.379464 123.357002,6.110324 104.270279,2.509999 
	C102.314392,2.141059 100.317093,1.991648 98.169502,1.370185 
	C359.354218,1.000000 620.708435,1.000000 882.531372,0.999998 
z"/>
<path fill="#FFFFFF" opacity="1.000000" stroke="none" 
	d="
M981.000000,882.531372 
	C980.170593,879.730225 979.315735,876.466675 978.516052,873.189636 
	C974.342163,856.083923 965.579956,841.724609 953.145081,829.309692 
	C879.226318,755.510193 805.407959,681.610168 731.553772,607.746033 
	C693.978882,570.165894 656.406189,532.583557 618.793640,495.041168 
	C617.523682,493.773529 615.831970,492.928406 613.214050,491.103668 
	C615.968384,489.054901 617.592468,488.132019 618.866272,486.858765 
	C730.210144,375.564758 841.492432,264.209045 952.886780,152.965561 
	C967.895874,137.976761 977.364990,120.417213 980.654541,99.192551 
	C981.000000,360.020905 981.000000,621.041809 981.000000,882.531372 
z"/>
<path fill="#FFFFFF" opacity="1.000000" stroke="none" 
	d="
M1.000000,100.468658 
	C1.824260,102.935349 2.728016,105.851028 3.459537,108.809311 
	C7.425064,124.845985 15.168925,138.758438 26.778173,150.515198 
	C27.597626,151.345062 28.426544,152.165604 29.251242,152.990295 
	C140.585342,264.324402 251.919098,375.658844 363.258789,486.987366 
	C364.435669,488.164124 365.690521,489.262939 368.708405,492.074432 
	C366.732544,493.088226 364.743500,493.580414 363.502014,494.820831 
	C252.120605,606.107605 140.844238,717.499573 29.412060,828.735474 
	C14.518234,843.603027 5.011882,860.930176 1.359384,881.843445 
	C1.000000,621.645752 1.000000,361.291534 1.000000,100.468658 
z"/>
<path fill="#FDFDFD" opacity="1.000000" stroke="none" 
	d="
M981.000000,78.531342 
	C979.668823,73.433899 978.626526,67.779610 976.958923,62.316204 
	C967.012817,29.731787 937.524292,5.242126 904.135864,1.380576 
	C929.593994,1.000000 955.188049,1.000000 981.000000,1.000000 
	C981.000000,26.687151 981.000000,52.374916 981.000000,78.531342 
z"/>
<path fill="#FDFDFD" opacity="1.000000" stroke="none" 
	d="
M904.468628,981.000000 
	C907.423706,980.173096 910.880005,979.460999 914.266174,978.501587 
	C951.583191,967.928650 973.373535,943.326843 980.640381,905.156372 
	C981.000000,930.260681 981.000000,955.521362 981.000000,981.000000 
	C955.646179,981.000000 930.291748,981.000000 904.468628,981.000000 
z"/>
<path fill="#FDFDFD" opacity="1.000000" stroke="none" 
	d="
M1.000001,906.468628 
	C1.815054,908.755066 2.651540,911.503967 3.441902,914.266052 
	C14.104976,951.531372 38.644760,973.395691 76.843552,980.640320 
	C51.740276,981.000000 26.480555,981.000000 1.000000,981.000000 
	C1.000000,956.312866 1.000000,931.625122 1.000001,906.468628 
z"/>
<path fill="#FDFDFD" opacity="1.000000" stroke="none" 
	d="
M76.531342,1.000000 
	C73.902077,1.817468 70.790352,2.586239 67.708344,3.459857 
	C32.745583,13.370320 10.919196,35.846684 2.771747,71.394592 
	C2.437809,72.851593 2.082603,74.303719 1.368652,75.879059 
	C1.000000,51.072643 1.000000,26.145288 1.000000,1.000000 
	C26.020473,1.000000 51.041576,1.000000 76.531342,1.000000 
z"/>
</svg>